<svg id="Layer_1" data-name="Layer 1" xmlns="http://www.w3.org/2000/svg" viewBox="0 0 1178.06 539.07"><defs><style>.cls-1{fill:#e0cec1;}.cls-10,.cls-2{fill:#feddc5;}.cls-3{fill:#c90c38;}.cls-4{fill:#bc5072;}.cls-5{fill:#2a9988;}.cls-6{fill:#72b2a6;}.cls-11,.cls-7{fill:#cecece;}.cls-8{fill:#ddd;}.cls-9{fill:#fff;}.cls-10,.cls-11{font-size:60px;font-family:Roboto-Regular, Roboto;}</style></defs><title>Artboard 2-100</title><polygon class="cls-1" points="145.75 175.32 141.04 199.42 125.18 180.61 145.75 175.32"/><polygon class="cls-2" points="145.75 175.32 141.04 199.42 146.38 192.6 193.94 131.84 189.23 125.66 141.04 157.55 145.75 175.32"/><polygon class="cls-1" points="198.64 136.83 146.38 192.6 193.94 131.84 198.64 136.83"/><polygon class="cls-3" points="189.23 125.66 193.94 131.84 198.64 136.83 226.59 164.78 204.62 127.79 189.23 125.66"/><polygon class="cls-4" points="189.23 125.66 190.42 136.33 226.59 164.78 189.23 125.66"/><polygon class="cls-2" points="128.41 109.8 141.04 157.55 153.79 149.12 128.41 109.8"/><polygon class="cls-2" points="128.41 109.8 107.66 116.66 121.43 86.36 128.41 109.8"/><polygon class="cls-1" points="189.23 125.66 153.79 149.12 128.41 109.8 189.23 125.66"/><polygon class="cls-2" points="125.18 180.61 145.75 175.32 88.28 122.85 125.18 180.61"/><polygon class="cls-5" points="125.18 180.61 0 149.12 62.31 118.32 125.18 180.61"/><polygon class="cls-6" points="88.28 122.85 125.18 180.61 62.31 118.32 88.28 122.85"/><polygon class="cls-3" points="91.02 121.95 34.82 33.25 70.92 119.82 88.28 122.85 91.02 121.95"/><polygon class="cls-5" points="121.43 86.36 196.31 126.64 233.31 34.57 121.43 86.36"/><polygon class="cls-1" points="88.28 122.85 91.02 121.95 107.66 116.66 128.41 109.8 145.75 175.32 88.28 122.85"/><polygon class="cls-6" points="121.43 86.36 128.41 109.8 189.23 125.66 189.87 123.18 121.43 86.36"/><polygon class="cls-4" points="107.66 116.66 76.69 99.33 91.02 121.95 107.66 116.66"/><polygon class="cls-6" points="189.87 123.18 196.31 126.64 189.23 125.66 189.87 123.18"/><polygon class="cls-1" points="145.75 494.03 141.04 518.13 125.18 499.32 145.75 494.03"/><polygon class="cls-2" points="145.75 494.03 141.04 518.13 146.38 511.3 193.94 450.54 189.23 444.37 141.04 476.26 145.75 494.03"/><polygon class="cls-1" points="198.64 455.54 146.38 511.3 193.94 450.54 198.64 455.54"/><polygon class="cls-3" points="189.23 444.37 193.94 450.54 198.64 455.54 226.59 483.49 204.62 446.5 189.23 444.37"/><polygon class="cls-4" points="189.23 444.37 190.42 455.04 226.59 483.49 189.23 444.37"/><polygon class="cls-2" points="128.41 428.5 141.04 476.26 153.79 467.83 128.41 428.5"/><polygon class="cls-2" points="128.41 428.5 107.66 435.37 121.43 405.07 128.41 428.5"/><polygon class="cls-1" points="189.23 444.37 153.79 467.83 128.41 428.5 189.23 444.37"/><polygon class="cls-2" points="125.18 499.32 145.75 494.03 88.28 441.56 125.18 499.32"/><polygon class="cls-5" points="125.18 499.32 0 467.83 62.31 437.02 125.18 499.32"/><polygon class="cls-6" points="88.28 441.56 125.18 499.32 62.31 437.02 88.28 441.56"/><polygon class="cls-3" points="91.02 440.65 34.82 351.96 70.92 438.53 88.28 441.56 91.02 440.65"/><polygon class="cls-5" points="121.43 405.07 196.31 445.35 233.31 353.28 121.43 405.07"/><polygon class="cls-1" points="88.28 441.56 91.02 440.65 107.66 435.37 128.41 428.5 145.75 494.03 88.28 441.56"/><polygon class="cls-6" points="121.43 405.07 128.41 428.5 189.23 444.37 189.87 441.88 121.43 405.07"/><polygon class="cls-4" points="107.66 435.37 76.69 418.04 91.02 440.65 107.66 435.37"/><polygon class="cls-6" points="189.87 441.88 196.31 445.35 189.23 444.37 189.87 441.88"/><polygon class="cls-7" points="766.75 176.62 761.74 202.29 744.83 182.25 766.75 176.62"/><polygon class="cls-8" points="766.75 176.62 761.74 202.29 767.43 195.02 818.1 130.28 813.09 123.7 761.74 157.68 766.75 176.62"/><polygon class="cls-7" points="823.1 135.6 767.43 195.02 818.1 130.28 823.1 135.6"/><polygon class="cls-8" points="813.09 123.7 818.1 130.28 823.1 135.6 852.89 165.38 829.48 125.97 813.09 123.7"/><polygon class="cls-7" points="813.09 123.7 814.35 135.07 852.89 165.38 813.09 123.7"/><polygon class="cls-8" points="748.28 106.8 761.74 157.68 775.32 148.7 748.28 106.8"/><polygon class="cls-8" points="748.28 106.8 726.16 114.11 740.84 81.83 748.28 106.8"/><polygon class="cls-7" points="813.09 123.7 775.32 148.7 748.28 106.8 813.09 123.7"/><polygon class="cls-8" points="744.83 182.25 766.75 176.62 705.52 120.71 744.83 182.25"/><polygon class="cls-8" points="744.83 182.25 611.46 148.7 677.85 115.88 744.83 182.25"/><polygon class="cls-7" points="705.52 120.71 744.83 182.25 677.85 115.88 705.52 120.71"/><polygon class="cls-8" points="708.43 119.75 648.56 25.24 687.02 117.48 705.52 120.71 708.43 119.75"/><polygon class="cls-8" points="740.84 81.83 820.63 124.75 860.05 26.65 740.84 81.83"/><polygon class="cls-7" points="705.52 120.71 708.43 119.75 726.16 114.11 748.28 106.8 766.75 176.62 705.52 120.71"/><polygon class="cls-7" points="740.84 81.83 748.28 106.8 813.09 123.7 813.76 121.06 740.84 81.83"/><polygon class="cls-7" points="726.16 114.11 693.16 95.65 708.43 119.75 726.16 114.11"/><polygon class="cls-7" points="813.76 121.06 820.63 124.75 813.09 123.7 813.76 121.06"/><polygon class="cls-7" points="891.04 513.39 886.03 539.07 869.13 519.03 891.04 513.39"/><polygon class="cls-8" points="891.04 513.39 886.03 539.07 891.72 531.8 942.39 467.06 937.38 460.48 886.03 494.46 891.04 513.39"/><polygon class="cls-7" points="947.4 472.38 891.72 531.8 942.39 467.06 947.4 472.38"/><polygon class="cls-8" points="937.38 460.48 942.39 467.06 947.4 472.38 977.18 502.16 953.78 462.75 937.38 460.48"/><polygon class="cls-7" points="937.38 460.48 938.64 471.85 977.18 502.16 937.38 460.48"/><polygon class="cls-8" points="872.57 443.57 886.03 494.46 899.62 485.47 872.57 443.57"/><polygon class="cls-8" points="872.57 443.57 850.46 450.89 865.14 418.61 872.57 443.57"/><polygon class="cls-7" points="937.38 460.48 899.62 485.47 872.57 443.57 937.38 460.48"/><polygon class="cls-8" points="869.13 519.03 891.04 513.39 829.82 457.49 869.13 519.03"/><polygon class="cls-8" points="869.13 519.03 735.75 485.47 802.14 452.65 869.13 519.03"/><polygon class="cls-7" points="829.82 457.49 869.13 519.03 802.14 452.65 829.82 457.49"/><polygon class="cls-8" points="832.73 456.52 772.85 362.02 811.32 454.26 829.82 457.49 832.73 456.52"/><polygon class="cls-8" points="865.14 418.61 944.92 461.53 984.35 363.43 865.14 418.61"/><polygon class="cls-7" points="829.82 457.49 832.73 456.52 850.46 450.89 872.57 443.57 891.04 513.39 829.82 457.49"/><polygon class="cls-7" points="865.14 418.61 872.57 443.57 937.38 460.48 938.06 457.83 865.14 418.61"/><polygon class="cls-7" points="850.46 450.89 817.46 432.42 832.73 456.52 850.46 450.89"/><polygon class="cls-7" points="938.06 457.83 944.92 461.53 937.38 460.48 938.06 457.83"/><polygon points="454.95 180.15 449.69 207.12 431.92 186.07 454.95 180.15"/><polygon points="454.95 180.15 449.69 207.12 455.66 199.49 508.9 131.47 503.63 124.56 449.69 160.26 454.95 180.15"/><polygon points="514.16 137.06 455.66 199.49 508.9 131.47 514.16 137.06"/><polygon points="503.63 124.56 508.9 131.47 514.16 137.06 545.45 168.35 520.86 126.94 503.63 124.56"/><polygon points="503.63 124.56 504.96 136.5 545.45 168.35 503.63 124.56"/><polygon points="435.54 106.8 449.69 160.26 463.95 150.82 435.54 106.8"/><polygon points="435.54 106.8 412.31 114.48 427.73 80.56 435.54 106.8"/><polygon points="503.63 124.56 463.95 150.82 435.54 106.8 503.63 124.56"/><polygon points="431.92 186.07 454.95 180.15 390.62 121.41 431.92 186.07"/><polygon points="431.92 186.07 291.79 150.82 361.54 116.33 431.92 186.07"/><polygon points="390.62 121.41 431.92 186.07 361.54 116.33 390.62 121.41"/><polygon points="393.68 120.4 330.77 21.1 371.18 118.02 390.62 121.41 393.68 120.4"/><polygon points="427.73 80.56 511.56 125.66 552.98 22.59 427.73 80.56"/><polygon points="390.62 121.41 393.68 120.4 412.31 114.48 435.54 106.8 454.95 180.15 390.62 121.41"/><polygon points="427.73 80.56 435.54 106.8 503.63 124.56 504.35 121.78 427.73 80.56"/><polygon points="412.31 114.48 377.64 95.08 393.68 120.4 412.31 114.48"/><polygon points="504.35 121.78 511.56 125.66 503.63 124.56 504.35 121.78"/><rect x="918.53" width="259.53" height="219.59"/><polygon class="cls-9" points="1077.22 165.5 1072.31 190.64 1055.75 171.02 1077.22 165.5"/><polygon class="cls-9" points="1077.22 165.5 1072.31 190.64 1077.88 183.52 1127.51 120.11 1122.6 113.67 1072.31 146.95 1077.22 165.5"/><polygon class="cls-9" points="1132.41 125.33 1077.88 183.52 1127.51 120.11 1132.41 125.33"/><polygon class="cls-9" points="1122.6 113.67 1127.51 120.11 1132.41 125.33 1161.58 154.5 1138.66 115.9 1122.6 113.67"/><polygon class="cls-9" points="1122.6 113.67 1123.84 124.8 1161.58 154.5 1122.6 113.67"/><polygon class="cls-9" points="1059.13 97.12 1072.31 146.95 1085.61 138.15 1059.13 97.12"/><polygon class="cls-9" points="1059.13 97.12 1037.47 104.28 1051.84 72.66 1059.13 97.12"/><polygon class="cls-9" points="1122.6 113.67 1085.61 138.15 1059.13 97.12 1122.6 113.67"/><polygon class="cls-9" points="1055.75 171.02 1077.22 165.5 1017.25 110.74 1055.75 171.02"/><polygon class="cls-9" points="1055.75 171.02 925.12 138.15 990.14 106.01 1055.75 171.02"/><polygon class="cls-9" points="1017.25 110.74 1055.75 171.02 990.14 106.01 1017.25 110.74"/><polygon class="cls-9" points="1020.1 109.8 961.46 17.23 999.13 107.58 1017.25 110.74 1020.1 109.8"/><polygon class="cls-9" points="1051.84 72.66 1129.99 114.7 1168.6 18.61 1051.84 72.66"/><polygon class="cls-9" points="1017.25 110.74 1020.1 109.8 1037.47 104.28 1059.13 97.12 1077.22 165.5 1017.25 110.74"/><polygon class="cls-9" points="1051.84 72.66 1059.13 97.12 1122.6 113.67 1123.27 111.08 1051.84 72.66"/><polygon class="cls-9" points="1037.47 104.28 1005.15 86.19 1020.1 109.8 1037.47 104.28"/><polygon class="cls-9" points="1123.27 111.08 1129.99 114.7 1122.6 113.67 1123.27 111.08"/><text class="cls-10" transform="translate(266.45 491.22)">Cast</text><text class="cls-11" transform="translate(1013.56 497.04)">Cast</text></svg>